<svg width="15" height="25" viewBox="0 0 15 25" fill="none" xmlns="http://www.w3.org/2000/svg">
<path d="M10.4056 2.98156H14.1057C14.308 2.98156 14.4719 2.81759 14.4719 2.61533C14.4719 2.41308 14.308 2.24911 14.1057 2.24911H10.4056C10.2033 2.24911 10.0394 2.41308 10.0394 2.61533C10.0394 2.81759 10.2034 2.98156 10.4056 2.98156Z" fill="#4F667A"/>
<path d="M10.4056 4.67249H12.2556C12.4579 4.67249 12.6219 4.50852 12.6219 4.30627C12.6219 4.10401 12.4579 3.94004 12.2556 3.94004H10.4056C10.2033 3.94004 10.0394 4.10401 10.0394 4.30627C10.0394 4.50852 10.2034 4.67249 10.4056 4.67249Z" fill="#4F667A"/>
<path d="M14.1064 5.64909H10.4063C10.204 5.64909 10.0401 5.81306 10.0401 6.01532C10.0401 6.21757 10.204 6.38154 10.4063 6.38154H14.1064C14.3087 6.38154 14.4726 6.21757 14.4726 6.01532C14.4726 5.81306 14.3086 5.64909 14.1064 5.64909Z" fill="#4F667A"/>
<path d="M10.4056 8.07248H12.2556C12.4579 8.07248 12.6219 7.9085 12.6219 7.70625C12.6219 7.504 12.4579 7.34003 12.2556 7.34003H10.4056C10.2033 7.34003 10.0394 7.504 10.0394 7.70625C10.0394 7.9085 10.2034 8.07248 10.4056 8.07248Z" fill="#4F667A"/>
<path d="M14.1064 9.02393H10.4063C10.204 9.02393 10.0401 9.1879 10.0401 9.39016C10.0401 9.59241 10.204 9.75638 10.4063 9.75638H14.1064C14.3087 9.75638 14.4726 9.59241 14.4726 9.39016C14.4726 9.1879 14.3086 9.02393 14.1064 9.02393Z" fill="#4F667A"/>
<path d="M10.4056 11.4473H12.2556C12.4579 11.4473 12.6219 11.2833 12.6219 11.0811C12.6219 10.8788 12.4579 10.7149 12.2556 10.7149H10.4056C10.2033 10.7149 10.0394 10.8788 10.0394 11.0811C10.0394 11.2833 10.2034 11.4473 10.4056 11.4473Z" fill="#4F667A"/>
<path d="M14.1064 12.4306H10.4063C10.204 12.4306 10.0401 12.5946 10.0401 12.7968C10.0401 12.9991 10.204 13.1631 10.4063 13.1631H14.1064C14.3087 13.1631 14.4726 12.9991 14.4726 12.7968C14.4726 12.5946 14.3086 12.4306 14.1064 12.4306V12.4306Z" fill="#4F667A"/>
<path d="M12.2556 14.1215H10.4056C10.2033 14.1215 10.0394 14.2855 10.0394 14.4878C10.0394 14.69 10.2033 14.854 10.4056 14.854H12.2556C12.4579 14.854 12.6219 14.69 12.6219 14.4878C12.6219 14.2855 12.4579 14.1215 12.2556 14.1215Z" fill="#4F667A"/>
<path d="M10.9548 19.7869C10.9548 21.1932 10.403 22.5111 9.40202 23.499C8.41858 24.4687 7.12165 25 5.7422 25C5.7173 25 5.69239 25 5.66749 24.9995C5.44678 24.9961 5.22851 24.9795 5.01268 24.9487C3.91009 24.7934 2.88564 24.2876 2.0775 23.4872C1.11164 22.5311 0.561814 21.2616 0.529586 19.9134C0.486127 18.0862 1.40267 16.3737 2.93398 15.3937V2.80772C2.93398 1.51275 3.81488 0.419931 5.00926 0.0971642C5.24267 0.0336851 5.48828 -7.62939e-06 5.74171 -7.62939e-06C7.28963 -7.62939e-06 8.54944 1.25932 8.54944 2.80772V15.3937C10.0383 16.3478 10.9548 18.0114 10.9548 19.7869Z" fill="#E9F5FF"/>
<path d="M10.9548 19.7869C10.9548 21.1932 10.403 22.5111 9.40197 23.499C8.41854 24.4687 7.12161 25 5.74216 25C4.82953 25 4.27726 25 4.27726 25C4.52532 25 4.77093 24.9829 5.01264 24.9487C6.11327 24.7944 7.13089 24.2944 7.93707 23.499C8.93857 22.5111 9.48987 21.1932 9.48987 19.7869C9.48987 18.0114 8.57333 17.8215 7.0845 16.8674V2.80772C7.0845 1.51275 6.20312 0.419931 5.00922 0.0971642C5.24263 0.0336851 5.48824 -7.62939e-06 5.74167 -7.62939e-06C7.28958 -7.62939e-06 8.5494 1.25932 8.5494 2.80772V15.3937C10.0382 16.3478 10.9548 18.0114 10.9548 19.7869Z" fill="#CDEAF7"/>
<path d="M9.48988 19.7942C9.48988 20.805 9.09338 21.7528 8.37314 22.4628C7.66657 23.1601 6.73197 23.5424 5.73828 23.5424C5.72119 23.5424 5.70459 23.5424 5.68798 23.5419C5.50048 23.5395 5.31492 23.5224 5.1323 23.4926C4.37299 23.3671 3.66887 23.0087 3.1083 22.4535C2.41296 21.7655 2.01695 20.8533 1.994 19.886C1.96177 18.5202 2.67469 17.2438 3.85442 16.5543C4.18988 16.3585 4.39887 15.9947 4.39887 15.6061V2.81503C4.39887 2.2945 4.69674 1.84185 5.13132 1.61918C5.31443 1.52494 5.52196 1.47221 5.7417 1.47221C6.48196 1.47221 7.08403 2.07477 7.08403 2.81503V15.6061C7.08403 15.9947 7.29302 16.3585 7.62849 16.5543C8.77648 17.2253 9.48988 18.4665 9.48988 19.7942Z" fill="#FF6E6E"/>
<path d="M9.48989 19.7942C9.48989 20.805 9.09339 21.7528 8.37315 22.4628C7.66658 23.1601 6.73197 23.5424 5.73828 23.5424C5.72119 23.5424 5.70459 23.5424 5.68799 23.5419C5.50048 23.5395 5.31493 23.5224 5.1323 23.4926C5.89258 23.3686 6.59378 23.0141 7.1524 22.4628C7.87264 21.7528 8.26914 20.805 8.26914 19.7942C8.26914 18.4665 7.55573 17.2253 6.40774 16.5543C6.07228 16.3585 5.86329 15.9947 5.86329 15.6061V2.81503C5.86329 2.2945 5.56542 1.84234 5.13132 1.61918C5.31444 1.52494 5.52196 1.47221 5.7417 1.47221C6.48196 1.47221 7.08403 2.07477 7.08403 2.81503V15.6061C7.08403 15.9947 7.29303 16.3585 7.62849 16.5543C8.77648 17.2253 9.48989 18.4665 9.48989 19.7942Z" fill="#F44E92"/>
<path d="M7.08402 2.81503V6.01535H4.39886V2.81503C4.39886 2.2945 4.69672 1.84185 5.13131 1.61918C5.31442 1.52494 5.52195 1.47221 5.74168 1.47221C6.48195 1.47221 7.08402 2.07477 7.08402 2.81503Z" fill="#4F667A"/>
<path d="M7.08404 2.81503V6.01535H5.86329V2.81503C5.86329 2.2945 5.56543 1.84234 5.13132 1.61918C5.31444 1.52494 5.52197 1.47221 5.7417 1.47221C6.48197 1.47221 7.08404 2.07477 7.08404 2.81503Z" fill="#3A5366"/>
</svg>
